<?xml version="1.0" encoding="utf-8"?>
<!-- Generator: Adobe Illustrator 18.1.1, SVG Export Plug-In . SVG Version: 6.00 Build 0)  -->
<svg version="1.1" id="Layer_1" xmlns="http://www.w3.org/2000/svg" xmlns:xlink="http://www.w3.org/1999/xlink" x="0px" y="0px"
	 viewBox="0 0 240.391 226.414" enable-background="new 0 0 240.391 226.414" xml:space="preserve">
<g>
	<g>
		<g>
			<path fill="#EA8E10" d="M168.026,16.669c-13.312-2.005-30.541-3.215-49.379-3.215c-17.388,0-33.399,1.03-46.229,2.765V40.46
				H36.65v93.13H203.79V40.91h-35.765V16.669L168.026,16.669z"/>
		</g>
		<path fill="#231F20" d="M168.026,47.872V16.768c18.291,3.174,30.136,8.172,30.136,13.814c3.104,0,5.629,2.596,5.629,5.802v11.488
			H168.026z"/>
		<path fill="#231F20" d="M72.415,47.374V16.269C54.124,19.444,42.28,24.442,42.28,30.084c-3.105,0-5.632,2.594-5.632,5.801v11.488
			L72.415,47.374L72.415,47.374z"/>
	</g>
	<path fill="#F5A909" d="M213.098,132.777c-4.225-4.224-12.777-4.512-19.145-8.106c-25.554-14.445-43.263-19.029-73.162-19.029
		c-0.188,0-0.381,0.002-0.568,0.004c-0.188-0.001-0.385-0.004-0.569-0.004c-29.899,0-47.606,4.584-73.161,19.029
		c-6.367,3.597-14.923,3.886-19.146,8.106c-12.045,12.046-4.393,37.98-4.393,37.98c0,0.695,0.555,1.248,1.241,1.248h96.024h96.027
		c0.688,0,1.244-0.553,1.244-1.248C217.49,170.756,225.145,144.823,213.098,132.777z"/>
	<path fill="#F5A909" d="M143.329,14.193c0-2.861-9.302-9.327-23.238-9.327c-13.922,0-22.979,6.466-22.979,9.327"/>
	<path fill="#231F20" d="M216.016,172.004h-18.505h-39.844h-75.73H42.691H24.429c-0.729,0-1.311,0.83-1.311,1.861l3.521,8.496
		c0,1.078,0.562,1.967,1.252,1.967h13.404v26.131c0,0.854,0.625,1.549,1.395,1.549h39.246c0.768,0,1.393-0.694,1.393-1.549v-16.332
		h72.936v16.332c0,0.854,0.619,1.549,1.404,1.549h39.844c0.779,0,1.398-0.694,1.398-1.549v-26.131h13.629
		c0.699,0,1.266-0.889,1.266-1.967l3.518-8.496C217.321,172.835,216.729,172.004,216.016,172.004z"/>
	<path fill="#12100B" stroke="#4D4947" stroke-width="6" d="M162.682,155.443c0,3.901-3.162,7.063-7.063,7.063H84.823
		c-3.902,0-7.064-3.162-7.064-7.063v-26.56c0-3.907,3.162-7.069,7.064-7.069h70.795c3.901,0,7.063,3.162,7.063,7.069V155.443
		L162.682,155.443z"/>
	<path fill="#D0D0D0" stroke="#231F20" stroke-width="4" d="M213.374,147.778c0,8.426-6.817,15.258-15.256,15.258
		c-8.41,0-15.248-6.83-15.248-15.258c0-8.424,6.838-15.255,15.248-15.255C206.557,132.524,213.374,139.354,213.374,147.778z"/>
	<path fill="#FFFFFF" stroke="#231F20" stroke-width="2" d="M207.565,147.778c0,5.217-4.222,9.443-9.442,9.443
		c-5.207,0-9.439-4.229-9.439-9.443c0-5.214,4.232-9.441,9.439-9.441C203.343,138.336,207.565,142.564,207.565,147.778z"/>
	<path fill="#D0D0D0" stroke="#231F20" stroke-width="4" d="M57.571,147.778c0,8.426-6.817,15.258-15.259,15.258
		c-8.409,0-15.248-6.83-15.248-15.258c0-8.424,6.839-15.255,15.248-15.255C50.751,132.524,57.571,139.354,57.571,147.778z"/>
	<path fill="#FFFFFF" stroke="#231F20" stroke-width="2" d="M51.757,147.778c0,5.217-4.221,9.443-9.443,9.443
		c-5.207,0-9.438-4.229-9.438-9.443c0-5.214,4.23-9.441,9.438-9.441C47.538,138.336,51.757,142.564,51.757,147.778z"/>
	<line fill="none" stroke="#4D4947" stroke-width="5" x1="79.828" y1="138.493" x2="160.614" y2="138.493"/>
	<line fill="none" stroke="#4D4947" stroke-width="5" x1="79.828" y1="130.113" x2="160.614" y2="130.113"/>
	<line fill="none" stroke="#4D4947" stroke-width="5" x1="79.828" y1="146.874" x2="160.614" y2="146.874"/>
	<line fill="none" stroke="#4D4947" stroke-width="5" x1="79.828" y1="155.254" x2="160.614" y2="155.254"/>
	<g>
		<path fill="#FFFFFF" d="M115.517,91.793c0,0.688-0.555,1.249-1.244,1.249H43.56c-0.688,0-1.246-0.562-1.246-1.249V57.367
			c0-0.688,0.56-1.25,1.246-1.25h70.713c0.689,0,1.244,0.562,1.244,1.25V91.793z"/>
		<path fill="#FFFFFF" d="M198.12,91.793c0,0.688-0.556,1.249-1.242,1.249h-70.701c-0.692,0-1.264-0.562-1.264-1.249V57.367
			c0-0.688,0.567-1.25,1.264-1.25h70.701c0.688,0,1.242,0.562,1.242,1.25V91.793z"/>
	</g>
	<g>
		<path fill="#231F20" d="M28.247,86.558c0,0.682-0.549,1.243-1.236,1.243H10.199c-0.684,0-1.248-0.562-1.248-1.243V62.517
			c0-0.689,0.564-1.243,1.248-1.243h16.811c0.689,0,1.236,0.554,1.236,1.243V86.558z"/>
		<path fill="none" stroke="#13110C" stroke-width="6" d="M18.601,87.801c0,5.763,7.994,10.417,17.886,10.417"/>
	</g>
	<g>
		<path fill="#231F20" d="M212.143,86.558c0,0.682,0.565,1.243,1.241,1.243h16.812c0.677,0,1.242-0.562,1.242-1.243V62.517
			c0-0.689-0.565-1.243-1.242-1.243h-16.812c-0.676,0-1.241,0.554-1.241,1.243V86.558z"/>
		<path fill="none" stroke="#13110C" stroke-width="6" d="M221.794,87.801c0,5.763-7.994,10.417-17.883,10.417"/>
	</g>
	<path fill="#E30613" stroke="#DD1215" stroke-width="0.2339" d="M173.449,34.682c0,5.866,4.735,10.608,10.596,10.608
		c5.854,0,10.603-4.742,10.603-10.608c0-5.839-4.748-10.596-10.603-10.596C178.186,24.086,173.449,28.843,173.449,34.682z"/>
	<path fill="#E30613" stroke="#DD1215" stroke-width="0.2339" d="M44.56,34.682c0,5.866,4.744,10.608,10.584,10.608
		c5.863,0,10.613-4.742,10.613-10.608c0-5.839-4.75-10.596-10.613-10.596C49.304,24.086,44.56,28.843,44.56,34.682z"/>
</g>
<g>
	<path fill="#085268" d="M156.366,61.373c-0.127,0.117-0.271,0.218-0.426,0.308c-0.039,0.114-0.087,0.226-0.14,0.334
		c-0.051,0.442-0.188,0.87-0.413,1.247c0.049,0.191,0.085,0.381,0.098,0.563c0.109,1.445-0.468,2.615-1.4,3.448
		c0.998,0.116,1.181-0.884,1.78-1.315c0.003-0.998-0.019-1.996,0.024-2.992c0.011-0.266,0.216-0.523,0.332-0.784
		c0.068-0.177,0.136-0.353,0.205-0.53C156.408,61.56,156.387,61.467,156.366,61.373z"/>
	<path fill="#085268" d="M147.106,85.451c0.03,0.022,0.056,0.048,0.085,0.072c0.033,0.003,0.065,0.006,0.098,0.009
		c-0.289-1.026,0.397-2.066-0.066-3.113c-0.029-0.066-0.039-0.141-0.04-0.22c0.01,0.45-0.075,0.899-0.243,1.311
		c0.134,0.534,0.123,1.104-0.013,1.638C146.995,85.244,147.051,85.347,147.106,85.451z"/>
	<path fill="#085268" d="M150.16,73.73c-0.06,0.061-0.132,0.112-0.199,0.167c0.047,0.904-0.266,1.828-0.939,2.431
		c-0.133,0.686-0.478,1.323-1.044,1.749c-0.151,0.375-0.373,0.718-0.671,0.996c-0.021,0.063-0.05,0.123-0.076,0.184
		c0.092,0.363,0.12,0.745,0.086,1.12c0.128-0.006,0.265,0.013,0.415,0.073c0.039-1.003-0.048-2.042,1.067-2.633
		c0.166-0.088,0.187-0.463,0.26-0.709c0.093-0.312,0.072-0.732,0.273-0.923c0.709-0.674,0.732-1.571,0.934-2.416
		C150.234,73.756,150.196,73.744,150.16,73.73z"/>
	<path fill="#8B3700" d="M187.935,92.913c0.05-0.171,0.114-0.337,0.192-0.496c0.048-0.396,0.158-0.784,0.346-1.131
		c-0.095-0.05-0.191-0.1-0.275-0.163c0.002,0.018,0.008,0.042,0.007,0.057C188.115,91.758,188.025,92.336,187.935,92.913z"/>
	<path fill="#DC8287" d="M157.679,93.373c0.547,0,1.042,0.081,1.485,0.227c-0.083-0.347-0.141-0.589-0.197-0.824
		c-0.728,0.135-1.477,0.384-2.04-0.377c-0.189,0.07-0.379,0.139-0.568,0.208c0.444,0.19,0.813,0.464,1.139,0.774
		C157.559,93.38,157.617,93.373,157.679,93.373z"/>
	<path fill="#DC8287" d="M164.36,93.091c-0.337,0.236-0.505,1.264-1.112,0.238c-0.801,0.75-1.779,0.299-2.675,0.35
		c-0.125,0.007-0.278-0.494-0.418-0.76c-0.084-0.002-0.168-0.003-0.252-0.005c-0.17,0.221-0.351,0.456-0.576,0.748
		c0.263,0.099,0.504,0.224,0.729,0.367c0.428-0.134,0.903-0.21,1.426-0.21c1.67,0,2.853,0.753,3.554,1.819h0.581
		c0.06-0.282,0.156-0.555,0.289-0.808c0.041-0.324,0.081-0.648,0.122-0.973C165.473,93.603,164.916,93.347,164.36,93.091z"/>
	<path fill="#020100" d="M153.973,92.288c0.185-0.021,0.375-0.034,0.574-0.034c0.686,0,1.288,0.13,1.811,0.353
		c0.19-0.069,0.379-0.138,0.568-0.208c-0.212-0.45-0.427-0.895-1.062-0.725c-1.059,0.213-2.117,0.426-3.176,0.639
		c0.236-0.035,0.48-0.059,0.74-0.059C153.618,92.254,153.797,92.269,153.973,92.288z"/>
	<path fill="#6B6F71" d="M167.848,93.449c-0.016-0.008-0.032-0.015-0.048-0.023c-0.591,0.144-1.182,0.288-1.772,0.432
		c-0.04,0.325-0.081,0.649-0.122,0.974C166.274,94.136,166.922,93.597,167.848,93.449z"/>
	<path fill="#A73F00" d="M148.175,86.33c-0.04-0.596-0.446-0.696-0.886-0.799c-0.033-0.003-0.066-0.006-0.099-0.009
		c0.656,0.543,0.995,1.379,1.017,2.228c0.013-0.022,0.025-0.044,0.038-0.065c0.135-0.285,0.271-0.571,0.406-0.856
		C148.484,86.663,148.187,86.506,148.175,86.33z"/>
	<path d="M158.021,65.443c-0.719,0.172-1.437,0.344-2.156,0.516c-0.599,0.43-0.782,1.431-1.78,1.315
		c-0.026,0.023-0.05,0.047-0.076,0.07c-0.593,0.689-0.705,1.789-1.774,2.071c-0.37,1.13-0.728,2.264-1.125,3.384
		c-0.046,0.13-0.309,0.184-0.471,0.273c-0.012,0.023-0.025,0.047-0.037,0.07c-0.003,0.006-0.007,0.013-0.01,0.019
		c-0.108,0.203-0.216,0.407-0.324,0.61c-0.202,0.845-0.225,1.742-0.934,2.416c-0.201,0.191-0.18,0.612-0.273,0.923
		c-0.073,0.246-0.094,0.621-0.26,0.709c-1.115,0.591-1.028,1.63-1.067,2.633c-0.136,0.304-0.272,0.608-0.409,0.912
		c-0.031,0.262-0.138,0.558-0.142,0.808c0,0.009,0.001,0.018,0.001,0.027c0.001,0.079,0.011,0.153,0.04,0.22
		c0.463,1.047-0.223,2.087,0.066,3.113c0.44,0.103,0.846,0.202,0.886,0.799c0.012,0.176,0.309,0.333,0.476,0.499
		c0.799-0.875,1.632-1.721,2.387-2.632c0.67-0.808,1.377-1.442,2.487-1.6c0.396-0.056,0.774-0.484,1.09-0.811
		c0.494-0.512,0.938-1.061,1.768-0.826c-0.006-0.052,0.009-0.096,0.046-0.132c0.217-0.64,0.466-1.271,0.642-1.922
		c0.207-0.765,0.542-1.563,0.48-2.319c-0.125-1.519,0.891-3.029,0.005-4.54c-0.072-0.123,0.008-0.336,0.022-0.506
		c0.029-0.356,0.178-0.753,0.07-1.061c-0.471-1.352-0.002-2.6,0.299-3.878C158.035,66.23,158,65.83,158.021,65.443z"/>
	<path fill="#DE835A" d="M158.021,65.443c-0.719,0.172-1.437,0.344-2.156,0.516c0.003-0.998-0.019-1.996,0.023-2.992
		c0.011-0.265,0.216-0.523,0.332-0.784c0.018,0.138,0.036,0.276,0.049,0.379c0.353-0.161,0.67-0.305,0.986-0.449
		c0.06,0.057,0.12,0.115,0.18,0.172c-0.153,0.436-0.306,0.871-0.496,1.41c0.073,0.064,0.257,0.225,0.567,0.496
		c0.143-0.548,0.389-0.978,0.326-1.358c-0.138-0.835,0.284-1.232,0.92-1.553c0.161,0.068,0.321,0.139,0.484,0.203
		c0.797,0.313,1.729-0.074,1.72-0.691c0.667-0.042,1.328-0.085,2.099-0.134c-0.425,0.795-0.017,1.011,0.605,1.081
		c0.173,0.019,0.344,0.056,0.516,0.084c-0.121,0.232-0.241,0.465-0.362,0.697c-0.122,0.062-0.245,0.124-0.367,0.185
		c-0.234,0.014-0.467,0.027-0.701,0.041c-0.129,0.049-0.258,0.098-0.388,0.147c-0.054,0.011-0.107,0.026-0.158,0.045
		c-0.13,0.045-0.261,0.09-0.391,0.134c0.005,0.089,0.009,0.177,0.014,0.266c-0.102,0.095-0.204,0.19-0.306,0.284
		c-0.136,0.059-0.271,0.117-0.406,0.176c-0.131-0.051-0.262-0.102-0.393-0.154c-0.11,0.007-0.22,0.014-0.33,0.021
		c-0.184,0.114-0.368,0.228-0.552,0.342c-0.059-0.009-0.115,0-0.168,0.026c-0.243,0.169-0.485,0.337-0.728,0.506
		c-0.048,0.109-0.096,0.218-0.144,0.327c-0.08,0.067-0.16,0.134-0.24,0.201c-0.056,0.064-0.113,0.127-0.169,0.191
		c-0.062,0.015-0.123,0.031-0.185,0.046C158.144,65.351,158.083,65.397,158.021,65.443z"/>
	<path fill="#015063" d="M165.692,60.102c-0.36-0.071-0.677-0.202-0.949-0.379c-0.011,0-0.021,0.002-0.033,0.002
		c-0.252,0-0.485-0.028-0.703-0.076c-0.053,0.001-0.106-0.001-0.159,0.003c-0.235,0.015-0.41-0.028-0.538-0.121
		c-0.32,0.123-0.681,0.195-1.089,0.195c-0.454,0-0.852-0.087-1.197-0.236c-0.47,0.494-1.14,0.821-2.025,0.821
		c-0.112,0-0.22-0.006-0.325-0.016c-0.252,0.084-0.527,0.14-0.829,0.154c-0.279,0.238-0.552,0.451-0.917,0.185
		c-0.144,0.275-0.331,0.526-0.563,0.739c0.021,0.093,0.043,0.186,0.06,0.279c1.232-0.684,2.538-1.124,3.955-1.196
		c0.485-0.088,0.971-0.175,1.456-0.263c1.292,0.067,2.584,0.133,3.876,0.2C165.701,60.296,165.695,60.199,165.692,60.102z"/>
	<path fill="#DB8264" d="M165.712,60.393c-1.292-0.067-2.584-0.133-3.876-0.2c0.643,0.061,1.288,0.185,1.929,0.169
		c1.089-0.027,2.061,0.032,2.174,1.591c-0.265-0.239-0.458-0.413-0.692-0.624c-0.337,0.156-0.703,0.325-1.068,0.494
		c-0.121,0.232-0.241,0.465-0.362,0.697c0.072,0.07,0.143,0.141,0.215,0.211c0.897-0.124,1.794-0.248,2.691-0.372
		c-0.026-0.027-0.052-0.053-0.079-0.08C166.103,61.8,165.792,61.113,165.712,60.393z"/>
	<path fill="#DB8365" d="M156.425,61.653c1.232-0.684,2.538-1.124,3.955-1.197c-0.192,0.156-0.364,0.354-0.581,0.457
		c-0.332,0.157-0.695,0.248-1.046,0.367c-0.636,0.321-1.058,0.717-0.92,1.553c0.063,0.38-0.184,0.81-0.326,1.358
		c-0.31-0.271-0.494-0.432-0.567-0.496c0.19-0.539,0.343-0.974,0.496-1.41c-0.06-0.057-0.12-0.115-0.18-0.172
		c-0.317,0.144-0.633,0.288-0.986,0.449c-0.013-0.103-0.031-0.241-0.049-0.379C156.289,62.006,156.357,61.829,156.425,61.653z"/>
	<path fill="#0F5063" d="M153.089,67.971c-0.112,0.47-0.379,0.897-0.84,1.153c-0.031,0.067-0.065,0.134-0.102,0.2
		c0.029,0.03,0.059,0.06,0.088,0.09c1.069-0.282,1.181-1.382,1.774-2.071C153.73,67.582,153.42,67.791,153.089,67.971z"/>
	<path fill="#035260" d="M152.147,69.324c-0.043,0.076-0.084,0.151-0.136,0.226c-0.115,0.165-0.223,0.334-0.327,0.505
		c-0.047,0.304-0.138,0.6-0.269,0.875c-0.039,0.593-0.227,1.173-0.577,1.644c-0.053,0.168-0.116,0.333-0.197,0.489
		c-0.001,0.003-0.002,0.006-0.003,0.009c0.162-0.089,0.425-0.143,0.471-0.273c0.397-1.12,0.755-2.254,1.125-3.384
		C152.206,69.384,152.176,69.354,152.147,69.324z"/>
	<path fill="#E0835B" d="M169.654,63.102c-0.09-0.001-0.179-0.002-0.269-0.003c-0.234-0.054-0.467-0.107-0.701-0.161
		c-0.056,0.003-0.109,0.008-0.166,0.008c-0.596,0-1.097-0.146-1.504-0.392c-0.039-0.009-0.078-0.018-0.117-0.027
		c0.199,0.874-0.683,0.691-0.899,0.666c-1.113-0.133-1.285,0.486-1.277,1.342c0.809,0.244,1.627,0.462,2.422,0.747
		c0.249,0.089,0.433,0.359,0.646,0.546c0.178-0.017,0.356-0.033,0.534-0.05c0.308-0.154,0.617-0.308,0.925-0.462
		c0.378-0.458,0.869-0.803,1.42-1.045c0.053-0.49-0.498-0.776-0.705-1.179L169.654,63.102z"/>
	<path fill="#DB8263" d="M166.874,62.46c-0.045-0.032-0.09-0.064-0.133-0.098c-0.006,0-0.012-0.002-0.018-0.002
		c-0.897,0.124-1.794,0.248-2.691,0.372c-0.257,0.174-0.514,0.349-0.77,0.523c-0.055,0.015-0.111,0.024-0.168,0.026
		c-0.124,0.047-0.248,0.094-0.372,0.142c-0.178-0.051-0.356-0.101-0.533-0.152c-0.062-0.004-0.124-0.008-0.187-0.011
		c-0.059,0.027-0.118,0.053-0.177,0.08c-0.102,0.095-0.204,0.19-0.306,0.285c-0.14,0.18-0.28,0.361-0.421,0.541
		c0.066,0.066,0.131,0.132,0.197,0.198c0.057,0.016,0.114,0.035,0.17,0.055c1.035,0.043,2.069,0.087,3.104,0.13
		c0.051-0.001,0.101-0.005,0.151-0.012c-0.009-0.856,0.163-1.475,1.277-1.342c0.216,0.026,1.099,0.208,0.899-0.666
		C166.892,62.504,166.881,62.483,166.874,62.46z"/>
	<path fill="#772C02" d="M169.654,63.102c-0.09-0.001-0.179-0.002-0.269-0.003C169.475,63.1,169.564,63.101,169.654,63.102z"/>
	<path fill="#E6C500" d="M150.71,92.742c0.457-0.102,0.916-0.205,1.374-0.307c0.042-0.009,0.085-0.017,0.127-0.026
		c0.154-0.04,0.313-0.072,0.478-0.096c1.059-0.213,2.117-0.426,3.176-0.639c-0.001-0.133,0.046-0.294-0.012-0.393
		c-0.15-0.256-0.348-0.484-0.526-0.723c0.007-0.48,0.015-0.959,0.022-1.439c-0.21-0.594-0.368-1.177,0.357-1.557
		c0.043-0.195,0.085-0.391,0.128-0.586c-0.846,0.118-1.689,0.296-2.539,0.337c-0.736,0.036-1.484-0.042-2.217-0.145
		c-0.908-0.128-1.636,0.164-2.271,0.78c-0.048,0.098-0.096,0.196-0.144,0.294c-0.075,0.044-0.15,0.087-0.225,0.131
		c-0.061,0.013-0.122,0.027-0.182,0.04c-0.017,0.056-0.024,0.114-0.019,0.173c-0.058,0.364-0.116,0.728-0.174,1.091
		c0.082,0.305,0.224,0.607,0.233,0.914c0.027,0.915,0.319,1.637,1.23,1.993C149.921,92.637,150.316,92.689,150.71,92.742z"/>
	<path fill="#E6C500" d="M148.565,88.634c-0.026,0-0.052,0-0.078,0c0,0.087,0,0.174,0,0.261c0.026,0,0.052,0,0.078,0
		C148.565,88.808,148.565,88.721,148.565,88.634z"/>
	<path fill="#742A0A" d="M148.296,90.591c-0.009-0.307-0.152-0.61-0.233-0.914c-0.016,0.184-0.032,0.367-0.048,0.551
		c0.174,0.479,0.23,1.005,0.171,1.515c0.401,0.238,0.715,0.567,0.936,0.954c0.116-0.005,0.245-0.032,0.404-0.113
		C148.614,92.229,148.323,91.506,148.296,90.591z"/>
	<path fill="#E6C500" d="M186.058,90.266c0.001-0.476-0.001-0.952-0.002-1.428c-0.061-0.095-0.122-0.19-0.182-0.286
		c-0.674-0.072-1.209-0.344-1.607-0.734c-0.081-0.01-0.162-0.02-0.243-0.03c-0.18,0.032-0.369,0.052-0.57,0.052
		c-0.496,0-0.924-0.103-1.29-0.278l-0.036-0.004c-0.63,0.384-1.261,0.769-1.898,1.157c0.11,0.06,0.259,0.141,0.408,0.223
		c1.1,0.267,2.2,0.534,3.282,0.797c0.186,1.267-0.224,1.699-1.369,1.8c-0.817,0.072-1.542,0.031-2.203-0.476
		c-0.023-0.018-0.053-0.035-0.081-0.037c-1.363-0.08-2.726-0.159-4.089-0.237c-0.32,0.37-0.64,0.74-0.96,1.11
		c-0.075,0.472-0.15,0.943-0.225,1.414c0.079-0.006,0.157-0.011,0.236-0.017c0.311-0.114,0.66-0.18,1.052-0.18
		c0.226,0,0.438,0.022,0.637,0.062c0.125-0.009,0.249-0.017,0.374-0.026c0.428-0.294,0.968-0.475,1.625-0.475
		c0.387,0,0.732,0.064,1.039,0.175c0.203,0.042,0.406,0.12,0.608,0.25c0.273,0.083,0.516,0.205,0.731,0.355
		c0.084,0.023,0.168,0.045,0.249,0.066c0.53,0.141,0.867,0.407,0.776,1.013c0.228-0.022,0.455-0.045,0.683-0.067
		c0.31-0.213,0.681-0.364,1.111-0.431c0.106-0.129,0.212-0.258,0.318-0.387c-0.004-0.056-0.013-0.111-0.026-0.165
		c-0.119-0.252-0.237-0.505-0.359-0.766C185.668,92.301,186.055,91.805,186.058,90.266z"/>
	<path fill="#E3C000" d="M186.296,88.818c-0.08,0.007-0.16,0.013-0.24,0.02c0.001,0.476,0.003,0.952,0.002,1.428
		c-0.003,1.539-0.39,2.034-2.013,2.448c0.122,0.261,0.241,0.513,0.359,0.766c0.161-0.064,0.32-0.175,0.484-0.184
		c1.63-0.087,1.992-0.372,2.388-1.935c0.037-0.144,0.039-0.297,0.057-0.446c-0.112-0.37-0.225-0.74-0.337-1.109
		C186.688,89.533,186.455,89.194,186.296,88.818z"/>
	<path fill="#E2BE01" d="M186.616,93.651c0.161-0.041,0.33-0.071,0.509-0.086c0.234-0.04,0.467-0.079,0.701-0.119
		c0.021-0.181,0.057-0.359,0.108-0.533c0.09-0.578,0.18-1.155,0.27-1.733c-0.291-0.088-0.581-0.176-0.872-0.264
		c-0.018,0.149-0.02,0.302-0.057,0.446c-0.396,1.562-0.759,1.848-2.388,1.935c-0.164,0.009-0.322,0.12-0.484,0.184
		c0.013,0.054,0.022,0.11,0.026,0.165c0.355,0.065,0.71,0.13,1.064,0.195C185.868,93.777,186.242,93.714,186.616,93.651z"/>
	<path fill="#E6C500" d="M155.865,91.674c-0.001-0.133,0.046-0.294-0.012-0.393c-0.15-0.256-0.348-0.484-0.526-0.723
		c0.166,0.106,0.331,0.211,0.699,0.446c0-0.799,0-1.432,0-2.065c0.145-0.411,0.291-0.822,0.436-1.233
		c0.542-0.348,1.127-0.663,1.098-1.445c0.205-0.112,0.41-0.224,0.616-0.336c0.062,0.042,0.123,0.085,0.185,0.128
		c0.131,0.031,0.261,0.062,0.392,0.093c0.084-0.027,0.167-0.054,0.251-0.081c1.122,0.125,2.243,0.251,3.365,0.376
		c-0.074,0.478-0.147,0.956-0.221,1.434c0.051,0.066,0.101,0.132,0.152,0.198c0.317-0.256,0.634-0.513,0.875-0.707
		c0.248,0.098,0.524,0.208,0.801,0.318c0.009,0.114,0.019,0.228,0.028,0.343c0.001,0.075,0.002,0.149,0.003,0.223
		c-0.22,0.089-0.44,0.178-0.525,0.212c0.228,0.957,0.45,1.893,0.673,2.829c-0.355,0.184-0.709,0.367-1.064,0.551
		c-0.667-0.051-1.334-0.102-2.001-0.153c-0.136-0.01-0.332,0.036-0.398-0.037c-0.727-0.799-0.972-0.151-1.269,0.398
		c-0.135,0.251-0.303,0.485-0.456,0.726c-0.728,0.135-1.477,0.384-2.04-0.377C156.715,91.949,156.5,91.504,155.865,91.674z"/>
	<path fill="#14120D" d="M159.328,93.663c0.225-0.292,0.406-0.527,0.576-0.748c0.112-0.038,0.224-0.076,0.336-0.113
		c-0.028,0.039-0.056,0.079-0.083,0.118c0.14,0.266,0.294,0.767,0.418,0.76c0.896-0.051,1.874,0.4,2.675-0.35
		c-0.052-0.496-0.105-0.992-0.157-1.488c-0.667-0.051-1.334-0.102-2.001-0.153c-0.136-0.01-0.332,0.036-0.398-0.037
		c-0.727-0.799-0.972-0.151-1.269,0.398c-0.135,0.251-0.303,0.485-0.456,0.726c0.056,0.235,0.114,0.477,0.197,0.824
		C159.221,93.618,159.273,93.642,159.328,93.663z"/>
	<path fill="#14120D" d="M160.22,92.424c-0.041-0.017-0.081-0.033-0.122-0.05c0.043,0.06,0.085,0.121,0.128,0.181
		c0.038-0.025,0.075-0.049,0.113-0.074C160.299,92.462,160.26,92.443,160.22,92.424z"/>
	<path fill="#171516" d="M167.8,93.426c-0.591,0.144-1.182,0.288-1.772,0.432c-0.556-0.255-1.112-0.511-1.668-0.767
		c0.047-0.416,0.094-0.831,0.141-1.247c0.133-0.063,0.266-0.127,0.399-0.19c0.244-0.052,0.488-0.103,0.732-0.155
		c0.719,0.17,1.438,0.34,2.158,0.51C167.793,92.482,167.796,92.954,167.8,93.426z M165.65,92.367
		c-0.607-0.204-0.557,0.214-0.555,0.586c0.042,0.044,0.084,0.088,0.125,0.133c0.14-0.243,0.281-0.486,0.421-0.729
		c0.028-0.044,0.055-0.087,0.083-0.131C165.7,92.274,165.675,92.321,165.65,92.367z"/>
	<path fill="#0B0805" d="M164.501,91.845c-0.047,0.416-0.094,0.831-0.14,1.247c-0.337,0.236-0.505,1.263-1.112,0.238
		c-0.052-0.496-0.105-0.992-0.157-1.488c0.355-0.184,0.709-0.367,1.064-0.551c0.178,0.002,0.355,0.004,0.533,0.006
		C164.626,91.479,164.563,91.662,164.501,91.845z"/>
	<path fill="#CBCCCD" d="M159.903,92.915c0.112-0.038,0.224-0.076,0.336-0.113c-0.028,0.039-0.056,0.079-0.083,0.118
		C160.071,92.918,159.987,92.916,159.903,92.915z"/>
	<path fill="#828789" d="M171.218,93.872c-0.516-0.158-1.032-0.217-1.549-0.185c0.139,0.067,0.269,0.145,0.388,0.232
		c0.117,0.025,0.234,0.049,0.342,0.085c0.058-0.003,0.11-0.014,0.169-0.014c0.261,0,0.503,0.031,0.728,0.083
		c0.227-0.054,0.472-0.083,0.736-0.083c0.045,0,0.086,0.005,0.13,0.006c0.032-0.025,0.059-0.055,0.092-0.079
		C171.909,93.91,171.563,93.888,171.218,93.872z"/>
	<path fill="#0B0C0A" d="M171.207,93.409c-0.287-0.029-0.575-0.059-0.863-0.088c-0.335-0.275,0.228-1.404-0.889-0.937
		c-0.014,0.267-0.028,0.535-0.052,0.983c-0.439-0.065-0.88-0.086-1.279-0.229c-0.072-0.026-0.07-0.633,0.084-0.819
		c0.197-0.24,0.581-0.325,0.885-0.477c0.056-0.14,0.113-0.28,0.169-0.419c-0.117-0.06-0.233-0.121-0.35-0.181
		c-0.243-0.044-0.487-0.087-0.73-0.131c-0.004,0.061-0.007,0.121-0.011,0.182c0.048,0.084,0.095,0.168,0.143,0.252
		c-0.113,0.028-0.227,0.056-0.34,0.084c-0.062,0.127-0.124,0.255-0.186,0.382c0.004,0.472,0.007,0.944,0.011,1.416
		c0.016,0.008,0.032,0.015,0.048,0.023c0.166-0.027,0.339-0.044,0.523-0.044c0.499,0,0.93,0.105,1.297,0.282
		c0.517-0.032,1.034,0.027,1.549,0.185c0.004-0.074,0.008-0.148,0.013-0.223C171.223,93.569,171.215,93.489,171.207,93.409z"/>
	<path fill="#DD8387" d="M155.833,86.975c-0.846,0.118-1.689,0.296-2.539,0.337c-0.736,0.036-1.484-0.042-2.217-0.145
		c-0.908-0.128-1.636,0.164-2.271,0.78c-0.119-0.026-0.238-0.053-0.357-0.079c-0.053-0.063-0.105-0.126-0.158-0.189l-0.047,0.005
		c0.135-0.285,0.271-0.571,0.406-0.856c0.799-0.875,1.632-1.721,2.387-2.632c0.67-0.808,1.377-1.442,2.487-1.6
		c0.396-0.056,0.774-0.484,1.09-0.811c0.494-0.512,0.938-1.061,1.768-0.827c-0.089,0.071-0.174,0.15-0.269,0.213
		c-0.978,0.648-1.293,1.735-0.67,2.413c0.258,0.281,0.741,0.45,0.843,0.761c0.198,0.603,0.199,1.271,0.281,1.912
		C156.323,86.498,156.078,86.736,155.833,86.975z"/>
	<path fill="#E6C500" d="M170.491,75.923c0.067-0.052,0.133-0.104,0.2-0.157c0.024-0.003,0.048-0.005,0.072-0.008
		c0.273-0.2,0.584-0.346,0.931-0.408c0.013-0.002,0.024-0.006,0.037-0.008c0.104-0.05,0.209-0.099,0.313-0.149
		c-0.08-0.463-0.148-0.929-0.246-1.387c-0.03-0.049-0.061-0.1-0.096-0.158c-0.2-0.325-0.325-0.647-0.392-0.96
		c-0.089-0.13-0.178-0.259-0.266-0.389c-0.311-0.17-0.621-0.341-0.932-0.511c-0.111-0.056-0.222-0.112-0.334-0.167
		c-0.746-0.44-1.511-0.853-2.226-1.338c-0.191-0.129-0.231-0.48-0.34-0.729c-0.168-0.166-0.335-0.333-0.503-0.499
		c-0.532-0.125-1.068-0.235-1.594-0.38c-0.369-0.102-0.999-0.204-1.03-0.388c-0.069-0.406,0.066-0.931,0.3-1.287
		c0.404-0.614,1.817-0.73,2.493-0.302c0.187,0.125,0.374,0.251,0.56,0.376c0.118-0.415,0.236-0.831,0.353-1.246
		c-0.214-0.187-0.398-0.457-0.647-0.546c-0.794-0.285-1.613-0.503-2.422-0.747c-0.05,0.007-0.1,0.011-0.151,0.012
		c-1.036,0.048-2.073,0.097-3.109,0.145l-1.442,0.184c-0.106,0.021-0.212,0.042-0.318,0.063c-0.389,0.201-0.772,0.417-1.174,0.589
		c-0.064,0.027-0.212-0.145-0.322-0.224c-0.062,0.046-0.123,0.092-0.184,0.137c-0.021,0.387,0.014,0.788-0.074,1.159
		c-0.302,1.278-0.77,2.526-0.299,3.878c0.107,0.308-0.042,0.705-0.07,1.061c-0.014,0.171-0.094,0.384-0.022,0.506
		c0.886,1.511-0.13,3.021-0.005,4.54c0.062,0.756-0.273,1.554-0.48,2.319c-0.176,0.651-0.425,1.282-0.642,1.922
		c0.298,0.122,0.597,0.244,0.895,0.367c1.166,0.05,2.332,0.138,3.497,0.129c0.456-0.003,0.911-0.224,1.366-0.346
		c0.25-0.76,0.485-1.526,0.754-2.28c0.248-0.692,0.586-1.273,1.446-1.398c0.206-0.03,0.347-0.507,0.517-0.778
		c-0.449,0.03-0.908,0.135-1.344,0.072c-0.707-0.101-1.398-0.312-2.095-0.477l0.007-0.015c-0.064,0.053-0.128,0.106-0.192,0.159
		h-1.329c0.233-0.161,0.333-0.23,0.432-0.298c0.179,0,0.359,0,0.538,0c0.063-0.018,0.126-0.037,0.189-0.055
		c0.146-0.111,0.29-0.317,0.438-0.32c1.424-0.023,2.849-0.019,4.273,0.003c0.123,0.002,0.242,0.192,0.364,0.294
		c0.862,0.02,1.725,0.029,2.587,0.064c0.34,0.014,0.679,0.083,1.018,0.127C170.023,76.025,170.257,75.974,170.491,75.923z
		 M161.672,69.441c-0.753,0.531-2.354,0.273-2.837-0.376c-0.501-0.674-0.42-1.576,0.279-2.354c1.135-1.134,2.927-0.779,3.197,0.354
		C162.811,68.075,162.61,68.779,161.672,69.441z"/>
	<path fill="#DD8286" d="M170.961,85.458c-0.177-0.026-0.343-0.067-0.501-0.12c-0.039-0.003-0.078-0.004-0.116-0.009l-0.032,0
		c-0.055,0.063-0.11,0.126-0.165,0.189l-0.287-0.283c-0.328-0.092-0.617-0.234-0.863-0.419c-0.154-0.066-0.308-0.131-0.462-0.197
		c-0.244-0.131-0.489-0.262-0.733-0.393c-0.293-0.124-0.586-0.247-0.879-0.371c-0.722-0.413-1.424-0.867-2.173-1.224
		c-0.525-0.25-1.113-0.367-1.465-0.478c-0.423-0.405-0.735-0.704-1.046-1.002c-0.579,0.238-1.17,0.698-1.734,0.667
		c-1.069-0.059-2.122-0.399-3.181-0.623c-0.298-0.122-0.597-0.244-0.895-0.367c-0.037,0.037-0.052,0.081-0.046,0.132
		c-0.089,0.071-0.174,0.15-0.269,0.213c-0.978,0.648-1.293,1.735-0.67,2.413c0.258,0.281,0.741,0.45,0.843,0.761
		c0.198,0.603,0.199,1.271,0.281,1.912c0.331,0,0.661,0.001,0.992,0.001c0.205-0.112,0.411-0.223,0.616-0.335l0.215-0.036
		c0.126-0.001,0.253-0.001,0.379-0.002c0.078,0.059,0.155,0.119,0.233,0.178c1.122,0.125,2.243,0.251,3.365,0.376
		c0.536,0.414,1.072,0.829,1.608,1.243c0.009,0.114,0.019,0.228,0.028,0.343c0.056,0.017,0.112,0.031,0.168,0.043
		c1.343-0.026,2.687-0.052,4.03-0.078c0.455-0.103,0.91-0.207,1.365-0.31c0.197-0.232,0.394-0.464,0.591-0.696
		c0.043-0.016,0.087-0.026,0.133-0.028c0.071-0.062,0.143-0.125,0.214-0.187c0.06-0.092,0.119-0.184,0.179-0.276
		c0.109-0.218,0.217-0.436,0.326-0.655c0.017-0.049,0.037-0.097,0.059-0.144c-0.019-0.05-0.027-0.101-0.024-0.154
		C171.017,85.513,170.989,85.486,170.961,85.458z"/>
	<path fill="#E1825A" d="M158.753,61.281c0.35-0.119,0.714-0.21,1.046-0.367c0.217-0.103,0.389-0.302,0.581-0.457
		c0.485-0.088,0.971-0.175,1.456-0.263c0.643,0.061,1.288,0.185,1.929,0.169c1.088-0.027,2.061,0.032,2.174,1.591
		c-0.265-0.239-0.458-0.413-0.692-0.624c-0.337,0.156-0.703,0.325-1.068,0.494c-0.172-0.029-0.343-0.065-0.516-0.084
		c-0.622-0.07-1.03-0.286-0.605-1.081c-0.771,0.049-1.433,0.091-2.099,0.134c0.009,0.617-0.923,1.004-1.72,0.691
		C159.074,61.42,158.914,61.349,158.753,61.281z"/>
	<path fill="#9C4C28" d="M164.032,62.732c-0.257,0.174-0.514,0.349-0.77,0.523c-0.056,0.009-0.112,0.017-0.168,0.026
		c-0.124,0.047-0.248,0.094-0.372,0.142c0.003-0.055,0.005-0.109,0.006-0.164c-0.06-0.059-0.121-0.117-0.181-0.176
		c-0.062-0.063-0.124-0.126-0.186-0.189c0.129-0.049,0.258-0.098,0.387-0.147c0.234-0.014,0.467-0.027,0.701-0.041
		c0.122-0.062,0.245-0.124,0.367-0.185C163.889,62.591,163.96,62.661,164.032,62.732z"/>
	<path fill="#8E4A01" d="M159.701,64.941c-0.389,0.201-0.772,0.417-1.174,0.588c-0.064,0.027-0.212-0.145-0.322-0.224
		c0.061-0.015,0.123-0.03,0.185-0.046c0.132-0.054,0.265-0.109,0.397-0.163c0.11-0.056,0.221-0.112,0.331-0.167
		c0.061-0.072,0.123-0.144,0.184-0.216l-0.012,0.009c0.064,0.008,0.127,0.016,0.191,0.024
		C159.555,64.812,159.628,64.876,159.701,64.941z"/>
	<path fill="#B26549" d="M160.72,63.646c0.131,0.051,0.262,0.102,0.393,0.154c-0.063,0.066-0.127,0.131-0.19,0.197
		c-0.062,0.072-0.124,0.144-0.186,0.217c-0.058,0.048-0.117,0.095-0.175,0.143c-0.061-0.043-0.122-0.086-0.183-0.129l0-0.068
		c0.002-0.056,0.002-0.112,0.001-0.168c0.001-0.059,0.001-0.118,0.001-0.177C160.495,63.757,160.607,63.701,160.72,63.646z"/>
	<path fill="#9D4614" d="M158.943,64.541c0.243-0.169,0.485-0.337,0.727-0.506c-0.003,0.054-0.006,0.109-0.008,0.163
		c-0.061,0.103-0.122,0.207-0.184,0.31c-0.062,0.072-0.125,0.143-0.187,0.215c0,0,0.012-0.009,0.012-0.009
		c-0.063,0.004-0.125,0.007-0.188,0.011l-0.017-0.071C159.047,64.616,158.995,64.579,158.943,64.541z"/>
	<path fill="#8B3E1E" d="M160.382,63.813c0,0.059,0,0.118-0.001,0.177c-0.057,0.005-0.113,0.016-0.167,0.035
		c-0.128,0.039-0.256,0.078-0.384,0.117c0.002-0.044,0.005-0.088,0.008-0.132c0.184-0.114,0.368-0.228,0.552-0.342
		C160.387,63.716,160.384,63.764,160.382,63.813z"/>
	<path fill="#96421B" d="M160.924,63.997c0.063-0.066,0.126-0.131,0.19-0.197c0.135-0.059,0.27-0.117,0.406-0.176
		c-0.14,0.18-0.28,0.361-0.42,0.541c-0.059,0.005-0.116,0.019-0.171,0.041l0-0.078C160.922,64.084,160.921,64.04,160.924,63.997z"/>
	<path fill="#933805" d="M163.45,62.706c-0.234,0.014-0.468,0.027-0.701,0.041C162.982,62.734,163.216,62.72,163.45,62.706z"/>
	<path fill="#C06B4E" d="M159.119,64.93c-0.11,0.056-0.221,0.112-0.331,0.167c-0.076-0.009-0.152-0.018-0.228-0.027
		c0.08-0.067,0.16-0.134,0.239-0.201c0.1-0.071,0.2-0.143,0.3-0.215c0,0,0.017,0.071,0.017,0.071
		C159.116,64.793,159.118,64.861,159.119,64.93z"/>
	<path fill="#8B3900" d="M159.099,64.654c-0.1,0.072-0.2,0.143-0.3,0.215c0.048-0.109,0.096-0.219,0.144-0.328
		C158.995,64.579,159.047,64.616,159.099,64.654z"/>
	<path fill="#AC5221" d="M162.189,63.271c-0.062-0.004-0.124-0.008-0.187-0.011c-0.063-0.062-0.127-0.124-0.19-0.186
		c0.13-0.045,0.26-0.09,0.391-0.135c-0.005,0.049-0.01,0.097-0.013,0.146c0.001,0.064,0.002,0.128,0.003,0.192L162.189,63.271z"/>
	<path fill="#B6694F" d="M158.559,65.069c0.076,0.009,0.152,0.018,0.228,0.027c-0.132,0.054-0.265,0.109-0.397,0.163
		C158.447,65.196,158.503,65.133,158.559,65.069z"/>
	<path fill="#8C3504" d="M161.812,63.074c0.063,0.062,0.127,0.124,0.19,0.186c-0.059,0.026-0.118,0.053-0.177,0.08
		C161.821,63.251,161.816,63.162,161.812,63.074z"/>
	<path fill="#923704" d="M162.189,63.085c0.004-0.049,0.008-0.098,0.013-0.146c0.052-0.019,0.104-0.034,0.158-0.045
		c0.062,0.063,0.124,0.126,0.186,0.189C162.428,63.084,162.308,63.085,162.189,63.085z"/>
	<path fill="#893000" d="M160.382,63.813c0.002-0.049,0.005-0.097,0.008-0.145c0.11-0.007,0.22-0.014,0.33-0.021
		C160.607,63.701,160.495,63.757,160.382,63.813z"/>
	<path fill="#823008" d="M159.838,64.01c-0.003,0.044-0.006,0.088-0.008,0.132c-0.054,0.025-0.11,0.044-0.168,0.057
		c0.003-0.054,0.005-0.109,0.008-0.163C159.723,64.009,159.779,64.001,159.838,64.01z"/>
	<path fill="#040201" d="M168.632,66.456c0.038-0.128,0.093-0.244,0.144-0.362c-0.151-0.105-0.302-0.209-0.452-0.314
		c-0.178,0.016-0.356,0.033-0.534,0.049c-0.118,0.415-0.236,0.831-0.353,1.246c0.498,0.879,0.172,1.683-0.226,2.48
		c0.109,0.249,0.15,0.6,0.34,0.729c0.715,0.485,1.48,0.898,2.226,1.338c-0.024-0.483-0.05-0.966-0.074-1.449
		C168.778,69.232,168.129,68.141,168.632,66.456z"/>
	<path fill="#9E5A05" d="M164.57,64.548c-1.036,0.048-2.073,0.097-3.109,0.145c0.002-0.092,0.004-0.184,0.005-0.276
		C162.5,64.461,163.535,64.504,164.57,64.548z"/>
	<path fill="#91480D" d="M161.466,64.418c-0.002,0.092-0.004,0.184-0.005,0.276c-0.481,0.061-0.961,0.123-1.442,0.184
		c0.059-0.172,0.119-0.344,0.178-0.515c0.012-0.049,0.016-0.098,0.013-0.148c0.056-0.02,0.113-0.039,0.169-0.056
		c0,0,0,0.068,0,0.068c0.005,0.055,0.009,0.111,0.01,0.167c0.301-0.008,0.603-0.017,0.904-0.025c0,0,0.003-0.005,0.003-0.005
		C161.353,64.379,161.41,64.397,161.466,64.418z"/>
	<path fill="#8D3113" d="M162.728,63.259c-0.001,0.055-0.003,0.109-0.006,0.164c-0.178-0.051-0.356-0.101-0.533-0.152
		c0,0,0.003,0.007,0.003,0.007C162.37,63.272,162.549,63.265,162.728,63.259z"/>
	<path fill="#DE9085" d="M160.928,64.205c0.055-0.022,0.112-0.035,0.171-0.041c0.066,0.066,0.131,0.132,0.197,0.198
		c0,0-0.003,0.005-0.003,0.005C161.171,64.313,161.049,64.259,160.928,64.205z"/>
	<path fill="#803D09" d="M163.094,63.281c0.056-0.009,0.112-0.017,0.168-0.026C163.207,63.27,163.151,63.279,163.094,63.281z"/>
	<path fill="#C983AD" d="M156.568,86.259c0.331,0,0.661,0.001,0.992,0.001c0.029,0.782-0.555,1.097-1.098,1.445
		c-0.252-0.048-0.504-0.095-0.757-0.143c0.043-0.195,0.085-0.391,0.128-0.586C156.078,86.736,156.323,86.498,156.568,86.259z"/>
	<path fill="#C47DAA" d="M156.026,88.938c0,0.633,0,1.266,0,2.065c-0.368-0.235-0.534-0.34-0.699-0.446
		c0.007-0.48,0.015-0.959,0.022-1.438C155.575,89.059,155.8,88.998,156.026,88.938z"/>
	<path fill="#CB83B8" d="M156.026,88.938c-0.226,0.06-0.451,0.121-0.677,0.181c-0.21-0.594-0.368-1.177,0.357-1.558
		c0.253,0.048,0.505,0.095,0.757,0.143C156.317,88.116,156.171,88.527,156.026,88.938z"/>
	<path fill="#853E4A" d="M148.255,88.413c-0.004-0.054-0.001-0.108,0.009-0.162c0.003-0.07,0.005-0.139,0.008-0.209
		c0.059-0.058,0.118-0.116,0.178-0.174c0.119,0.026,0.238,0.053,0.357,0.079c-0.048,0.098-0.096,0.196-0.144,0.294
		c-0.075,0.044-0.15,0.088-0.225,0.131C148.377,88.386,148.316,88.399,148.255,88.413z"/>
	<path fill="#671D00" d="M148.565,88.634c0,0.087,0,0.174,0,0.261c-0.026,0-0.052,0-0.078,0c0-0.087,0-0.174,0-0.261
		C148.513,88.634,148.539,88.634,148.565,88.634z"/>
	<path fill="#C78097" d="M148.438,88.373c0.075-0.044,0.15-0.088,0.225-0.131C148.588,88.285,148.513,88.329,148.438,88.373z"/>
	<path d="M183.919,89.734c-1.082-0.263-2.182-0.53-3.282-0.797l-1.426-0.375c-1.03-0.127-2.06-0.255-3.089-0.382
		c-0.461,0.418-1.091,0.684-1.893,0.684c-0.993,0-1.721-0.407-2.191-1.004c-1.279,0.043-2.558,0.087-3.836,0.13
		c-1.342,0.026-2.686,0.052-4.029,0.078c-0.055,0.06-0.11,0.121-0.165,0.181c-0.22,0.089-0.44,0.178-0.525,0.212
		c0.228,0.957,0.45,1.893,0.673,2.829c0.178,0.002,0.355,0.004,0.533,0.006c-0.049-0.119-0.098-0.239-0.147-0.358
		c-0.037,0.046-0.074,0.093-0.111,0.139c-0.015-0.041-0.03-0.082-0.045-0.124c0.172-0.114,0.343-0.227,0.515-0.341l0.748,0.132
		c0.669-0.14,1.336-0.287,2.007-0.414c0.151-0.029,0.315,0.013,0.473,0.023c0.055-0.043,0.109-0.085,0.164-0.128
		c0.084,0.011,0.169,0.021,0.253,0.032c0.124,0.107,0.248,0.213,0.372,0.32c1.197-0.247,2.389-0.87,3.602-0.043
		c0.065,0.044,0.19,0.055,0.262,0.024c1.171-0.498,2.279-0.107,3.393,0.225c1.363,0.079,2.727,0.157,4.09,0.237
		c0.028,0.002,0.058,0.019,0.081,0.037c0.661,0.507,1.387,0.548,2.203,0.476C183.695,91.433,184.105,91.001,183.919,89.734z"/>
	<path fill="#84898A" d="M168.918,90.579c1.197-0.247,2.389-0.87,3.602-0.044c0.065,0.044,0.19,0.055,0.262,0.024
		c1.171-0.498,2.279-0.107,3.393,0.225c-0.32,0.37-0.64,0.74-0.96,1.109c-0.363-0.195-0.842-0.646-1.072-0.543
		c-1.395,0.627-2.828,0.254-4.24,0.297c-0.211,0.006-0.427-0.147-0.64-0.226c-0.117-0.06-0.233-0.121-0.35-0.181
		C168.914,91.02,168.916,90.8,168.918,90.579z"/>
	<path fill="#0C0C0B" d="M171.396,92.368c0.068-0.046,0.136-0.093,0.204-0.139c0.056,0.012,0.112,0.024,0.168,0.035
		c0.177-0.073,0.353-0.147,0.53-0.22c0.11,0.101,0.219,0.202,0.329,0.303c0.202-0.03,0.404-0.061,0.606-0.091
		c0.047-0.047,0.102-0.057,0.163-0.03c0.09,0.3,0.18,0.601,0.335,1.115c-0.476-0.089-0.78-0.146-1.084-0.204l-0.307,0.347
		c-0.075,0.002-0.15,0.005-0.224,0.007c-0.199-0.005-0.398-0.01-0.597-0.014c-0.096,0.058-0.191,0.115-0.287,0.173
		c-0.004,0.074-0.008,0.149-0.013,0.223c0.345,0.016,0.69,0.037,1.035,0.045c0.437-0.317,0.996-0.513,1.682-0.513
		c0.207,0,0.4,0.02,0.584,0.054c0.157-0.05,0.313-0.1,0.47-0.15c0.075-0.471,0.15-0.943,0.225-1.415
		c-0.363-0.195-0.842-0.646-1.072-0.543c-1.395,0.627-2.828,0.254-4.24,0.297c-0.211,0.006-0.427-0.147-0.64-0.226
		c-0.056,0.14-0.113,0.28-0.169,0.419l0.362,0.543c1.117-0.467,0.554,0.661,0.889,0.937c0.202-0.013,0.404-0.027,0.645-0.043
		c0.028-0.392,0.055-0.762,0.08-1.117c0.058-0.02,0.095-0.042,0.102-0.034C171.249,92.204,171.322,92.286,171.396,92.368z"/>
	<path fill="#430F0C" d="M182.125,87.541c-0.086-0.043-0.169-0.09-0.247-0.142c-0.012,0-0.022,0.002-0.034,0.002
		c-0.029,0-0.056-0.003-0.084-0.004c-0.104,0.048-0.208,0.095-0.312,0.143c-0.441,0.498-1.082,0.836-1.919,0.878
		c-0.106,0.048-0.212,0.097-0.318,0.145c0.476,0.125,0.951,0.25,1.427,0.375c-0.149-0.081-0.298-0.163-0.408-0.223
		c0.638-0.389,1.268-0.773,1.898-1.158C182.127,87.552,182.126,87.546,182.125,87.541z"/>
	<path fill="#66A4AC" d="M179.354,88.426c-0.118,0-0.233-0.006-0.344-0.017c-0.08,0.006-0.157,0.017-0.242,0.017
		c-0.382,0-0.723-0.062-1.027-0.17c-0.253-0.023-0.494-0.064-0.709-0.138c-0.057,0.003-0.108,0.015-0.167,0.015
		c-0.029,0-0.055-0.003-0.083-0.004c-0.022,0.001-0.041,0.004-0.063,0.004c-0.177,0-0.343-0.017-0.502-0.043
		c-0.031,0.031-0.062,0.061-0.094,0.09c1.03,0.127,2.059,0.255,3.089,0.382c0.106-0.048,0.212-0.097,0.318-0.145
		C179.47,88.42,179.414,88.426,179.354,88.426z"/>
	<path fill="#E9BF02" d="M162.368,86.441c0.536,0.414,1.072,0.829,1.608,1.243c-0.277-0.11-0.554-0.22-0.801-0.318
		c-0.241,0.195-0.558,0.451-0.875,0.707c-0.051-0.066-0.101-0.132-0.152-0.198C162.221,87.396,162.295,86.919,162.368,86.441z"/>
	<path fill="#C782AF" d="M158.391,85.888c0.126-0.001,0.253-0.001,0.379-0.002c-0.006,0.086-0.011,0.173-0.017,0.259
		c-0.131-0.031-0.261-0.062-0.391-0.093C158.381,85.999,158.391,85.944,158.391,85.888z"/>
	<path fill="#E9BF02" d="M164.172,88.069c-0.055,0.06-0.11,0.121-0.165,0.181c-0.001-0.074-0.002-0.149-0.003-0.223
		C164.06,88.043,164.116,88.057,164.172,88.069z"/>
	<path fill="#B6ABB5" d="M158.391,85.888c0,0.056-0.01,0.111-0.029,0.164c-0.062-0.043-0.124-0.086-0.186-0.128
		C158.248,85.912,158.319,85.9,158.391,85.888z"/>
	<path fill="#6B0A2D" d="M158.753,86.145c0.006-0.086,0.011-0.173,0.017-0.259c0.078,0.059,0.155,0.119,0.233,0.178
		C158.92,86.091,158.836,86.118,158.753,86.145z"/>
	<path d="M160.226,92.555c-0.043-0.06-0.085-0.121-0.128-0.181c0.041,0.017,0.081,0.033,0.122,0.05
		C160.232,92.467,160.234,92.511,160.226,92.555z"/>
	<path fill="#CBCCCD" d="M160.226,92.555c0.008-0.044,0.006-0.088-0.006-0.131c0.04,0.019,0.079,0.038,0.119,0.057
		C160.301,92.506,160.264,92.531,160.226,92.555z"/>
	<path fill="#D87D83" d="M165.648,90.745c0.669-0.14,1.336-0.287,2.007-0.414c0.151-0.029,0.315,0.013,0.473,0.023
		c0.018,0.252,0.036,0.504,0.055,0.756c-0.004,0.061-0.007,0.121-0.011,0.182c-0.066,0.112-0.132,0.224-0.197,0.336
		c-0.062,0.127-0.124,0.255-0.185,0.382c-0.719-0.17-1.438-0.34-2.158-0.51C165.637,91.249,165.642,90.997,165.648,90.745z"/>
	<path fill="#D78083" d="M165.648,90.745c-0.006,0.252-0.011,0.503-0.017,0.755c-0.244,0.052-0.488,0.103-0.732,0.155
		c0-0.347,0-0.695,0-1.042C165.149,90.657,165.399,90.701,165.648,90.745z"/>
	<path fill="#1B1A19" d="M165.095,92.954c-0.002-0.373-0.052-0.791,0.555-0.586l-0.009-0.01c-0.14,0.243-0.281,0.486-0.421,0.729
		C165.179,93.042,165.137,92.998,165.095,92.954z"/>
	<path fill="#995F25" d="M164.9,90.613c0,0.347,0,0.695,0,1.042c-0.133,0.063-0.266,0.127-0.399,0.19
		c0.062-0.183,0.125-0.365,0.188-0.548c-0.049-0.119-0.098-0.239-0.147-0.358c-0.051,0.011-0.103,0.016-0.156,0.016
		C164.557,90.84,164.729,90.727,164.9,90.613z"/>
	<path fill="#FEFEFE" d="M165.65,92.367c0.025-0.047,0.05-0.093,0.075-0.14c-0.028,0.044-0.055,0.087-0.083,0.131
		C165.642,92.358,165.65,92.367,165.65,92.367z"/>
	<path fill="#C9C6C7" d="M165.095,92.954c0.042,0.044,0.084,0.088,0.125,0.133C165.179,93.042,165.137,92.998,165.095,92.954z"/>
	<path fill="#DCDCDC" d="M169.094,91.841c0.121,0.181,0.241,0.362,0.362,0.543c-0.014,0.267-0.028,0.535-0.052,0.983
		c-0.439-0.065-0.88-0.086-1.279-0.229c-0.072-0.026-0.07-0.633,0.084-0.819C168.406,92.079,168.79,91.993,169.094,91.841z"/>
	<path fill="#CDA608" d="M168.183,91.11c-0.018-0.252-0.036-0.504-0.055-0.756c0.055-0.043,0.109-0.085,0.164-0.128
		c0.085,0.011,0.169,0.021,0.253,0.032c0.124,0.107,0.248,0.213,0.372,0.32c-0.001,0.221-0.003,0.442-0.004,0.662
		C168.67,91.197,168.426,91.153,168.183,91.11z"/>
	<path fill="#7C8180" d="M170.344,93.321c0.202-0.013,0.404-0.027,0.645-0.043c0.028-0.392,0.055-0.762,0.08-1.117
		c0.058-0.02,0.095-0.042,0.102-0.034c0.077,0.078,0.15,0.16,0.224,0.241c-0.007,0.196-0.014,0.391-0.021,0.587
		c-0.056,0.151-0.112,0.303-0.168,0.454C170.919,93.379,170.632,93.35,170.344,93.321z"/>
	<path fill="#111513" d="M171.207,93.409c0.056-0.151,0.112-0.303,0.168-0.454c0.077,0.104,0.154,0.208,0.231,0.312l-0.013,0.023
		c-0.025,0.063-0.049,0.125-0.074,0.188c-0.096,0.058-0.191,0.115-0.287,0.173C171.223,93.569,171.215,93.489,171.207,93.409z"/>
	<path fill="#CC7F87" d="M167.975,91.628c0.066-0.112,0.132-0.224,0.197-0.336c0.048,0.084,0.095,0.168,0.143,0.252
		C168.201,91.572,168.088,91.6,167.975,91.628z"/>
	<path fill="#C77D82" d="M148.449,87.868c-0.059,0.058-0.118,0.116-0.178,0.174c-0.006-0.066-0.011-0.131-0.017-0.197
		c0.005-0.057,0.017-0.112,0.036-0.165C148.344,87.743,148.397,87.806,148.449,87.868z"/>
	<path fill="#C06F5C" d="M148.255,87.845c0.006,0.066,0.011,0.132,0.017,0.197c-0.003,0.069-0.005,0.139-0.008,0.209
		C148.261,88.116,148.258,87.98,148.255,87.845z"/>
	<path d="M168.878,80.13c0.177-0.419,0.441-0.798,0.804-1.086c-0.011-0.03-0.026-0.058-0.035-0.09
		c-0.044-0.16-0.07-0.328-0.083-0.497c-0.391-0.474-0.116-1.071,0.047-1.648c0.059-0.244,0.118-0.489,0.176-0.733
		c-0.339-0.044-0.678-0.113-1.018-0.127c-0.862-0.035-1.724-0.044-2.587-0.064c-0.062,0.018-0.124,0.036-0.186,0.054
		c-0.364,0.194-0.729,0.388-1.093,0.582c-0.171,0.271-0.312,0.748-0.518,0.778c-0.86,0.125-1.198,0.706-1.446,1.398
		c-0.27,0.753-0.504,1.519-0.754,2.28c0.017,0.057,0.034,0.115,0.051,0.172c0.312,0.298,0.623,0.596,1.047,1.002
		c0.352,0.111,0.94,0.228,1.465,0.478c0.749,0.357,1.451,0.811,2.173,1.223c0.24-0.532,0.504-1.041,0.965-1.359
		C167.87,81.605,168.2,80.709,168.878,80.13z"/>
	<path fill="#E0E2DD" d="M162.312,67.065c0.499,1.009,0.298,1.714-0.64,2.375c-0.753,0.531-2.354,0.273-2.837-0.376
		c-0.501-0.674-0.42-1.576,0.279-2.354c0.299,0.326,0.913,0.517,0.482,1.161c-0.027,0.04,0.151,0.313,0.24,0.317
		c0.374,0.017,0.78,0.056,1.12-0.067c0.638-0.23,0.361-0.751,0.272-1.198c-0.018-0.091,0.037-0.197,0.062-0.308
		C161.67,66.784,161.991,66.925,162.312,67.065z"/>
	<path fill="#E1DFDB" d="M166.707,69.056c-0.532-0.125-1.068-0.235-1.594-0.38c-0.369-0.102-0.999-0.204-1.03-0.388
		c-0.069-0.406,0.066-0.931,0.3-1.287c0.404-0.614,1.817-0.73,2.493-0.302c-0.201,0.138-0.402,0.276-0.603,0.414
		c0.16,0.091,0.43,0.156,0.458,0.277c0.089,0.383,0.626,0.779,0.02,1.196C166.668,68.643,166.718,68.894,166.707,69.056z"/>
	<path fill="#E3DFDD" d="M162.312,67.065c-0.321-0.141-0.642-0.282-1.022-0.449c-0.024,0.111-0.08,0.216-0.062,0.308
		c0.088,0.448,0.365,0.968-0.272,1.198c-0.339,0.122-0.746,0.084-1.12,0.067c-0.09-0.004-0.267-0.277-0.24-0.317
		c0.431-0.644-0.183-0.835-0.482-1.161C160.25,65.578,162.041,65.933,162.312,67.065z"/>
	<path fill="#D5CFCC" d="M165.998,75.94c-0.364,0.194-0.729,0.388-1.093,0.582c-0.449,0.03-0.908,0.135-1.344,0.073
		c-0.707-0.101-1.398-0.312-2.095-0.477c0.074-0.085,0.149-0.244,0.223-0.243C163.125,75.885,164.561,75.914,165.998,75.94z"/>
	<path fill="#E0DFDD" d="M166.707,69.056c0.011-0.161-0.039-0.413,0.044-0.47c0.606-0.417,0.069-0.813-0.02-1.196
		c-0.028-0.121-0.299-0.186-0.458-0.277c0.201-0.138,0.402-0.276,0.603-0.414c0.187,0.125,0.373,0.25,0.56,0.376
		c0.498,0.879,0.172,1.683-0.226,2.48C167.042,69.389,166.875,69.222,166.707,69.056z"/>
	<path fill="#9E591A" d="M162.187,80.978c0.017,0.057,0.034,0.115,0.051,0.172c-0.578,0.238-1.17,0.698-1.734,0.667
		c-1.069-0.059-2.122-0.399-3.181-0.623c1.166,0.05,2.332,0.138,3.497,0.13C161.277,81.321,161.732,81.1,162.187,80.978z"/>
	<path fill="#A98601" d="M165.998,75.94c-1.436-0.025-2.873-0.055-4.309-0.065c-0.074-0.001-0.149,0.159-0.223,0.243
		c0,0,0.007-0.015,0.007-0.015c-0.06,0.002-0.119,0.001-0.179-0.006l0.006-0.005c-0.064-0.045-0.127-0.089-0.191-0.134l0.001-0.05
		c0.146-0.111,0.29-0.317,0.438-0.32c1.424-0.023,2.849-0.019,4.273,0.003c0.123,0.002,0.242,0.192,0.364,0.294
		C166.122,75.904,166.06,75.922,165.998,75.94z"/>
	<path fill="#E9E8F1" d="M160.921,75.963c0.063-0.019,0.126-0.037,0.189-0.055c0,0-0.001,0.05-0.001,0.05
		c0.064,0.045,0.127,0.089,0.191,0.134c0,0-0.006,0.005-0.006,0.005c-0.007,0.055-0.011,0.109-0.014,0.164c-0.382,0-0.764,0-1.329,0
		c0.233-0.161,0.333-0.23,0.432-0.298C160.562,75.963,160.741,75.963,160.921,75.963z"/>
	<path fill="#7C2911" d="M160.197,64.362c-0.059,0.172-0.119,0.344-0.178,0.515c-0.106,0.021-0.212,0.042-0.318,0.063
		c-0.073-0.064-0.146-0.129-0.219-0.194c0,0-0.011-0.039-0.011-0.038C159.713,64.593,159.955,64.478,160.197,64.362z"/>
	<path fill="#D2C3C4" d="M160.921,75.963c-0.179,0-0.359,0-0.538,0C160.562,75.963,160.741,75.963,160.921,75.963z"/>
	<path fill="#DED5D3" d="M161.28,76.261c0.002-0.055,0.007-0.11,0.014-0.164c0.059,0.006,0.119,0.008,0.179,0.006
		C161.409,76.156,161.345,76.209,161.28,76.261z"/>
	<path fill="#963807" d="M171.407,85.753c-0.108-0.025-0.213-0.053-0.338-0.059c-0.022,0.047-0.041,0.095-0.059,0.144
		c0.069,0.076,0.138,0.151,0.207,0.227l0.137-0.054c-0.029,0.071-0.057,0.143-0.086,0.214l-0.068,0.021
		c-0.001,0.293-0.002,0.587-0.003,0.88c0.084,0.192,0.17,0.39,0.328,0.752c0.17-0.006,0.341-0.012,0.511-0.017
		C171.576,87.275,171.366,86.507,171.407,85.753z"/>
	<path fill="#963807" d="M168.201,87.991c1.003-0.034,2.007-0.068,3.011-0.102c-0.61-0.077-1.131-0.143-1.645-0.208
		C169.112,87.784,168.657,87.888,168.201,87.991z"/>
	<path fill="#DEBE01" d="M171.198,87.126c0.088,0.202,0.176,0.404,0.351,0.805c-0.766-0.097-1.374-0.174-1.982-0.251
		c0.197-0.232,0.394-0.464,0.591-0.696c0.044-0.009,0.089-0.019,0.133-0.028c0.071-0.062,0.143-0.125,0.214-0.187
		c0,0,0.002,0.006,0.002,0.006c0.068,0.049,0.136,0.099,0.204,0.148c0.041,0.021,0.085,0.034,0.13,0.041
		c0.072,0.049,0.144,0.098,0.215,0.147C171.104,87.123,171.151,87.128,171.198,87.126z"/>
	<path fill="#DD9099" d="M171.198,87.126c-0.048,0.002-0.095-0.003-0.141-0.015c-0.072-0.049-0.144-0.098-0.215-0.147
		c-0.046-0.007-0.089-0.02-0.131-0.041c-0.068-0.049-0.136-0.099-0.204-0.148c0,0-0.002-0.006-0.002-0.006
		c0.06-0.092,0.119-0.184,0.179-0.277c0.172-0.083,0.345-0.165,0.517-0.247C171.201,86.54,171.199,86.833,171.198,87.126z"/>
	<path fill="#9C505A" d="M171.202,86.246c-0.172,0.082-0.345,0.164-0.517,0.247c0.109-0.218,0.218-0.436,0.326-0.654
		c0.069,0.075,0.138,0.151,0.207,0.227c0.014,0.055,0.031,0.108,0.052,0.16L171.202,86.246z"/>
	<path fill="#E2B74D" d="M170.291,86.957c-0.045,0.009-0.089,0.019-0.133,0.028C170.201,86.968,170.246,86.959,170.291,86.957z"/>
	<path fill="#024656" d="M170.147,85.518c0.001-0.068,0.002-0.136,0.003-0.205c0.053,0.015,0.107,0.021,0.162,0.016
		C170.257,85.392,170.202,85.455,170.147,85.518z"/>
	<path fill="#B2614E" d="M162.728,63.259c-0.179,0.006-0.358,0.013-0.537,0.019c-0.001-0.064-0.002-0.128-0.003-0.192
		c0.119-0.001,0.239-0.002,0.358-0.003C162.608,63.142,162.668,63.2,162.728,63.259z"/>
	<path fill="#DB9388" d="M159.291,64.723c0.062-0.072,0.125-0.143,0.187-0.215c-0.002,0.067-0.005,0.134-0.007,0.2
		c0,0,0.011,0.038,0.011,0.039C159.418,64.739,159.355,64.731,159.291,64.723z"/>
	<path fill="#DB9388" d="M159.119,64.93c-0.001-0.068-0.003-0.137-0.004-0.205c0.063-0.004,0.125-0.007,0.188-0.011
		C159.242,64.786,159.18,64.858,159.119,64.93z"/>
	<path fill="#CE795E" d="M160.928,64.205c0.122,0.054,0.244,0.108,0.365,0.162c-0.301,0.009-0.603,0.017-0.904,0.025
		c0.057-0.015,0.115-0.027,0.173-0.037c0.058-0.048,0.117-0.095,0.175-0.143c0.063-0.029,0.126-0.057,0.19-0.085L160.928,64.205z"/>
	<path fill="#DB8567" d="M160.379,64.158c-0.057,0.018-0.113,0.037-0.169,0.056c0.001-0.063,0.002-0.127,0.003-0.19
		c0.054-0.019,0.11-0.03,0.167-0.035C160.381,64.046,160.381,64.102,160.379,64.158z"/>
	<path fill="#843100" d="M160.562,64.356c-0.058,0.01-0.116,0.022-0.173,0.037c-0.001-0.056-0.004-0.111-0.01-0.166
		C160.44,64.27,160.501,64.313,160.562,64.356z"/>
	<path fill="#833100" d="M160.927,64.128c-0.063,0.028-0.126,0.057-0.19,0.085c0.062-0.072,0.124-0.144,0.186-0.216
		C160.921,64.04,160.922,64.084,160.927,64.128z"/>
	<path fill="#BF6E58" d="M160.213,64.025c-0.001,0.063-0.002,0.126-0.003,0.19c0.003,0.05-0.001,0.099-0.013,0.148
		c-0.242,0.116-0.484,0.231-0.726,0.347c0.002-0.067,0.005-0.133,0.007-0.2c0.061-0.104,0.122-0.207,0.184-0.31
		c0.058-0.013,0.114-0.031,0.168-0.057C159.957,64.102,160.085,64.063,160.213,64.025z"/>
	<path fill="#E9C945" d="M164.385,90.954c0.053,0.001,0.105-0.004,0.156-0.016c-0.037,0.046-0.074,0.093-0.111,0.139
		C164.416,91.036,164.401,90.995,164.385,90.954z"/>
	<path fill="#E9EAEA" d="M171.768,92.264c0.177-0.073,0.353-0.147,0.53-0.22c0.014,0.48,0.028,0.96,0.042,1.44
		c-0.075,0.002-0.15,0.005-0.224,0.007c-0.174-0.067-0.349-0.135-0.524-0.202l0.013-0.023c0.062-0.056,0.123-0.111,0.185-0.167
		c0.115-0.132,0.295-0.252,0.321-0.4c0.015-0.085-0.218-0.214-0.34-0.323c0.009-0.037,0.001-0.071-0.023-0.101L171.768,92.264z"/>
	<path fill="#D2D3D4" d="M173.395,92.226c0.09,0.3,0.18,0.601,0.335,1.115c-0.476-0.089-0.78-0.146-1.084-0.204
		c0.013-0.066,0.027-0.131,0.04-0.197c0.058,0.004,0.116,0.009,0.174,0.014c0.067,0.048,0.135,0.095,0.202,0.143l0.066-0.004
		c0,0,0.066,0.005,0.066,0.005c0.012-0.058,0.024-0.116,0.036-0.174c-0.066-0.003-0.133-0.005-0.199-0.008l0.005,0.027
		c-0.059-0.067-0.119-0.135-0.178-0.202c0.143-0.073,0.285-0.146,0.428-0.219c0.028-0.05,0.064-0.089,0.107-0.117
		C173.39,92.346,173.391,92.286,173.395,92.226z"/>
	<path fill="#7D7877" d="M172.686,92.941c-0.013,0.066-0.027,0.131-0.04,0.197c-0.102,0.116-0.204,0.231-0.306,0.347
		c-0.014-0.48-0.028-0.96-0.042-1.44c0.11,0.101,0.219,0.202,0.329,0.303c0.011,0.08,0.021,0.161,0.032,0.241
		C172.668,92.705,172.677,92.823,172.686,92.941z"/>
	<path fill="#C9CBCC" d="M172.658,92.588c-0.011-0.08-0.021-0.161-0.032-0.241c0.202-0.03,0.404-0.061,0.606-0.091
		c0.021,0.039,0.016,0.074-0.016,0.105c0.023,0.054,0.046,0.108,0.069,0.162c-0.143,0.073-0.285,0.146-0.428,0.219
		C172.792,92.69,172.725,92.639,172.658,92.588z"/>
	<path fill="#D8D6D6" d="M171.79,93.099c-0.062,0.056-0.123,0.111-0.185,0.167c-0.077-0.104-0.154-0.208-0.231-0.312
		c0.007-0.196,0.014-0.391,0.021-0.587c0.068-0.046,0.136-0.093,0.204-0.139c0.049,0.015,0.099,0.031,0.148,0.046
		c0.024,0.03,0.032,0.063,0.023,0.101C171.778,92.617,171.784,92.858,171.79,93.099z"/>
	<path fill="#84898A" d="M171.592,93.289c0.175,0.067,0.349,0.135,0.524,0.202c-0.199-0.005-0.398-0.01-0.597-0.014
		C171.543,93.414,171.567,93.351,171.592,93.289z"/>
	<path fill="#FEFEFE" d="M173.217,92.361c0.031-0.031,0.036-0.066,0.016-0.105c0.047-0.047,0.102-0.057,0.163-0.03
		c-0.004,0.06-0.005,0.12-0.002,0.18C173.335,92.391,173.276,92.376,173.217,92.361z"/>
	<path fill="#D2C3C4" d="M161.3,76.092c-0.064-0.045-0.127-0.089-0.191-0.134C161.173,76.002,161.236,76.047,161.3,76.092z"/>
	<path fill="#6B1400" d="M171.27,86.225c-0.021-0.052-0.038-0.106-0.052-0.16c0.046-0.018,0.092-0.036,0.137-0.053
		C171.327,86.083,171.298,86.154,171.27,86.225z"/>
	<path fill="#C5737A" d="M170.842,86.965c0.072,0.049,0.143,0.098,0.215,0.147C170.986,87.062,170.914,87.013,170.842,86.965z"/>
	<path fill="#C5737A" d="M170.508,86.776c0.068,0.049,0.136,0.099,0.204,0.148C170.644,86.874,170.576,86.825,170.508,86.776z"/>
	<path fill="#141312" d="M171.79,93.099c-0.006-0.241-0.012-0.482-0.018-0.724c0.121,0.109,0.355,0.239,0.34,0.323
		C172.085,92.847,171.905,92.967,171.79,93.099z"/>
	<path fill="#060606" d="M172.658,92.588c0.067,0.051,0.133,0.102,0.2,0.153c0.059,0.067,0.119,0.135,0.178,0.202
		c-0.059,0.004-0.118,0.007-0.177,0.011c-0.058-0.005-0.116-0.009-0.174-0.014C172.677,92.823,172.668,92.705,172.658,92.588z"/>
</g>
<defs>
	
	<script  language="JavaScript" xlink:href="svg.js"></script>
</defs>
<script  type="text/JavaScript">
	<![CDATA[
function notify( ref, type ) {
    var event = document.createEvent("CustomEvent");
    event.initEvent(type,true,true);
    ref.dispatchEvent(event);
}

		
		
		
		
		
		
		
		
		
		
		
		]]>
</script>
<g>
	<path d="M74.525,24.132c0.953-0.173,2.46-0.303,3.989-0.303c2.183,0,3.587,0.324,4.643,1.06c0.878,0.562,1.402,1.427,1.402,2.573
		c0,1.406-1.078,2.638-2.857,3.2v0.043c1.604,0.346,3.484,1.492,3.484,3.654c0,1.254-0.575,2.206-1.43,2.919
		c-1.179,0.93-3.085,1.362-5.845,1.362c-1.505,0-2.659-0.086-3.389-0.173L74.525,24.132L74.525,24.132z M76.707,30.099h1.979
		c2.311,0,3.663-1.038,3.663-2.443c0-1.708-1.505-2.378-3.713-2.378c-1.003,0-1.58,0.065-1.932,0.13L76.707,30.099L76.707,30.099z
		 M76.707,37.083c0.427,0.065,1.054,0.087,1.831,0.087c2.258,0,4.34-0.714,4.34-2.833c0-1.989-1.981-2.811-4.364-2.811h-1.807
		V37.083L76.707,37.083z"/>
	<path d="M90.305,23.937v8.627c0,3.265,1.682,4.648,3.938,4.648c2.509,0,4.112-1.427,4.112-4.648v-8.627h2.207v8.498
		c0,4.476-2.732,6.313-6.396,6.313c-3.462,0-6.07-1.708-6.07-6.227v-8.584H90.305z"/>
	<path d="M104.053,36.218c0.979,0.519,2.408,0.952,3.913,0.952c2.232,0,3.537-1.017,3.537-2.487c0-1.362-0.903-2.141-3.188-2.897
		c-2.76-0.843-4.465-2.076-4.465-4.13c0-2.271,2.184-3.957,5.469-3.957c1.73,0,2.984,0.346,3.737,0.714l-0.603,1.535
		c-0.553-0.26-1.683-0.692-3.211-0.692c-2.31,0-3.188,1.189-3.188,2.184c0,1.362,1.028,2.032,3.361,2.811
		c2.858,0.951,4.312,2.14,4.312,4.281c0,2.249-1.932,4.195-5.92,4.195c-1.631,0-3.411-0.411-4.312-0.93L104.053,36.218z"/>
	<path d="M121.889,31.959v1.405h-6.194v-1.405H121.889z"/>
</g>
<g>
	<path d="M125.397,36.961c0.95,0.585,2.34,1.073,3.802,1.073c2.169,0,3.437-1.145,3.437-2.803c0-1.535-0.879-2.412-3.096-3.265
		c-2.681-0.95-4.338-2.339-4.338-4.654c0-2.559,2.119-4.46,5.312-4.46c1.681,0,2.901,0.39,3.631,0.804l-0.585,1.73
		c-0.536-0.293-1.633-0.78-3.119-0.78c-2.242,0-3.096,1.34-3.096,2.462c0,1.535,1,2.291,3.266,3.168
		c2.778,1.073,4.193,2.413,4.193,4.826c0,2.534-1.877,4.728-5.753,4.728c-1.583,0-3.314-0.463-4.191-1.049L125.397,36.961z"/>
	<path d="M140.829,24.923h-4.994v-1.804h12.16v1.804h-5.02v14.621h-2.145V24.923z"/>
	<path d="M149.827,23.119h2.121v7.92h0.073c0.439-0.634,0.877-1.218,1.292-1.755l5.02-6.165h2.631l-5.947,6.97l6.409,9.455h-2.51
		l-5.409-8.066l-1.56,1.803v6.263h-2.121V23.119z"/>
</g>
</svg>
